<?xml version="1.0" standalone="no"?>
<!DOCTYPE svg PUBLIC "-//W3C//DTD SVG 20010904//EN"
 "http://www.w3.org/TR/2001/REC-SVG-20010904/DTD/svg10.dtd">
<svg version="1.0" xmlns="http://www.w3.org/2000/svg"
 width="700.000000pt" height="700.000000pt" viewBox="0 0 700.000000 700.000000"
 preserveAspectRatio="xMidYMid meet">
<metadata>
Created by potrace 1.11, written by Peter Selinger 2001-2013
</metadata>
<g transform="translate(0.000000,700.000000) scale(0.100000,-0.100000)"
fill="#000000" stroke="none">
<path d="M2438 6995 c-2 -1 -96 -6 -209 -9 -113 -4 -216 -8 -230 -11 -13 -2
-61 -6 -106 -10 -45 -3 -90 -8 -101 -10 -11 -2 -37 -6 -58 -9 -22 -3 -57 -9
-79 -12 -214 -32 -525 -139 -695 -238 -33 -20 -63 -36 -65 -36 -3 0 -51 -33
-107 -74 -156 -113 -282 -241 -390 -396 -144 -205 -271 -510 -313 -755 -3 -16
-8 -37 -11 -46 -2 -10 -6 -30 -8 -45 -2 -16 -7 -45 -10 -64 -14 -82 -16 -99
-22 -180 -3 -47 -7 -95 -9 -108 -27 -171 -27 -2858 0 -2986 2 -12 7 -58 9
-103 3 -45 10 -110 15 -145 6 -35 13 -81 16 -103 13 -85 65 -284 98 -375 54
-149 58 -159 115 -270 214 -416 566 -707 1047 -863 86 -29 265 -72 330 -81 54
-8 116 -17 140 -22 11 -3 56 -7 100 -9 44 -3 94 -8 110 -10 178 -28 2764 -28
3000 0 17 2 62 6 100 9 39 4 81 8 95 10 14 2 50 7 80 11 99 12 322 66 437 106
685 236 1097 754 1223 1535 11 66 22 154 25 195 4 40 8 92 10 114 27 270 28
2727 1 2985 -2 19 -7 71 -11 115 -7 88 -10 110 -19 170 -4 22 -9 56 -12 75
-24 184 -166 591 -250 715 -8 11 -42 63 -77 115 -106 158 -234 290 -387 399
-148 106 -246 159 -445 241 -101 42 -332 99 -495 124 -143 21 -151 22 -462 43
-68 4 -2375 12 -2380 8z m2327 -638 c393 -25 380 -24 543 -57 336 -70 591
-221 767 -455 49 -65 144 -249 170 -330 21 -65 62 -229 70 -280 44 -295 49
-472 50 -1705 0 -1122 -8 -1492 -35 -1660 -5 -30 -12 -75 -15 -100 -28 -197
-124 -451 -228 -599 -97 -138 -252 -269 -416 -351 -64 -32 -271 -104 -326
-114 -16 -3 -66 -12 -110 -20 -248 -45 -430 -50 -1730 -50 -1029 0 -1220 2
-1485 19 -81 5 -102 8 -195 21 -246 35 -475 117 -642 230 -251 171 -415 443
-487 804 -54 274 -61 475 -60 1780 0 947 5 1298 19 1485 10 124 31 284 45 335
5 19 11 46 14 60 10 54 60 199 97 278 81 176 190 311 347 429 109 82 375 197
506 217 21 4 41 8 45 10 3 2 26 7 51 10 25 3 54 8 65 10 22 4 105 13 200 21
33 2 150 7 260 11 110 3 201 7 203 9 5 5 2192 -3 2277 -8z"/>
<path d="M5270 5774 c-81 -21 -135 -52 -194 -110 -229 -225 -130 -606 183
-700 64 -19 192 -12 259 14 72 28 154 93 195 155 123 187 84 433 -90 566 -96
74 -239 104 -353 75z"/>
<path d="M3385 5293 c-102 -9 -221 -27 -290 -45 -44 -11 -96 -24 -115 -29
-101 -24 -323 -127 -450 -207 -216 -138 -416 -341 -557 -567 -111 -178 -208
-429 -238 -615 -4 -25 -9 -54 -12 -65 -11 -52 -19 -211 -16 -315 20 -789 553
-1469 1318 -1682 67 -19 182 -41 271 -54 102 -14 387 -8 469 9 11 3 40 8 65
12 178 27 437 127 611 236 551 343 870 936 853 1584 -4 120 -6 138 -29 268
-77 436 -322 835 -680 1108 -88 67 -218 146 -304 186 -42 18 -85 38 -96 43
-68 32 -271 93 -348 105 -12 2 -53 8 -92 15 -66 10 -294 18 -360 13z m265
-638 c362 -50 666 -249 852 -560 66 -111 130 -281 144 -383 3 -26 9 -65 13
-87 8 -50 6 -200 -4 -280 -51 -410 -334 -772 -725 -928 -179 -71 -364 -95
-565 -73 -64 6 -74 8 -145 25 -241 55 -485 216 -648 426 -325 420 -314 1024
26 1442 190 234 478 391 767 419 33 4 61 7 62 8 6 5 172 -2 223 -9z"/>
</g>
</svg>
