<?xml version="1.0" standalone="no"?>
<!DOCTYPE svg PUBLIC "-//W3C//DTD SVG 20010904//EN"
 "http://www.w3.org/TR/2001/REC-SVG-20010904/DTD/svg10.dtd">
<svg version="1.0" xmlns="http://www.w3.org/2000/svg"
 width="512.000000pt" height="512.000000pt" viewBox="0 0 512.000000 512.000000"
 preserveAspectRatio="xMidYMid meet">
<metadata>
Created by potrace 1.11, written by Peter Selinger 2001-2013
</metadata>
<g transform="translate(0.000000,512.000000) scale(0.100000,-0.100000)"
fill="#000000" stroke="none">
<path d="M2800 4983 c-156 -53 -225 -195 -182 -373 27 -111 42 -178 48 -215 3
-22 8 -43 10 -47 2 -3 11 -39 19 -80 12 -64 57 -266 70 -323 3 -11 8 -33 10
-50 3 -16 12 -57 20 -90 43 -182 94 -437 98 -485 4 -64 -8 -129 -29 -150 -12
-13 -18 -12 -47 3 -63 34 -80 75 -256 592 -22 66 -84 246 -137 400 -52 154
-97 285 -98 290 -2 6 -6 17 -9 25 -3 8 -13 38 -21 65 -22 76 -70 187 -91 213
-34 40 -100 73 -157 78 -78 6 -142 -19 -200 -78 -26 -27 -47 -52 -46 -56 1 -4
-4 -26 -11 -50 -13 -47 -8 -112 12 -162 27 -66 449 -1350 453 -1379 15 -104 8
-154 -23 -165 -41 -16 -117 66 -177 189 -57 116 -147 306 -176 370 -12 28 -42
91 -65 140 -100 211 -149 314 -177 375 -109 236 -135 272 -224 312 -161 71
-346 -38 -338 -198 2 -54 5 -58 459 -979 109 -220 206 -425 217 -455 39 -114
29 -196 -24 -183 -41 11 -122 68 -168 120 -25 28 -146 181 -269 340 -124 159
-243 303 -267 322 -86 65 -206 91 -272 57 -61 -32 -89 -115 -65 -197 6 -20 37
-83 70 -140 33 -57 71 -124 85 -149 14 -25 50 -88 80 -140 30 -52 67 -115 80
-140 14 -25 70 -121 123 -215 53 -93 133 -240 177 -325 74 -142 109 -210 198
-375 18 -33 39 -73 48 -90 8 -16 24 -42 34 -58 11 -15 17 -27 14 -27 -3 0 1
-8 9 -17 8 -10 41 -49 72 -88 76 -93 108 -124 184 -180 70 -52 152 -96 214
-114 22 -7 47 -15 55 -18 49 -19 253 -24 339 -9 104 18 673 219 764 269 87 49
171 114 246 189 63 64 161 200 180 251 6 16 15 25 21 22 5 -3 7 0 4 9 -3 8 1
28 10 43 8 15 41 84 72 153 78 172 97 215 264 580 59 129 119 260 133 290 241
517 247 535 208 596 -26 42 -112 75 -194 75 -71 1 -165 -41 -213 -93 -17 -19
-65 -101 -108 -183 -187 -358 -201 -379 -249 -367 -25 6 -53 35 -62 63 -23 71
-103 405 -99 411 3 4 1 8 -3 8 -8 0 -37 107 -38 140 0 8 -3 17 -6 20 -10 8
-40 140 -34 150 3 4 1 10 -3 12 -10 4 -76 252 -76 290 -1 14 -4 24 -7 22 -4
-2 -9 9 -12 24 -3 15 -7 36 -10 47 -3 11 -33 128 -67 260 -34 132 -63 247 -65
255 -36 158 -67 257 -90 290 -47 67 -162 108 -235 83z"/>
<path d="M3530 1124 c-96 -36 -314 -118 -485 -181 -624 -233 -615 -229 -657
-320 -38 -85 -31 -143 32 -277 21 -45 52 -111 69 -148 l30 -68 733 0 c403 0
834 -1 957 -1 123 0 225 2 226 3 3 4 -85 181 -309 623 -181 356 -211 399 -292
423 -77 22 -120 15 -304 -54z"/>
</g>
</svg>
